# xmcd CD database file
#
# Track frame offsets:
#	150
#	17232
#	35626
#	50103
#	68920
#	87833
#	107737
#	122035
#	141840
#	161730
#	179340
#	198602
#	213702
#	230052
#
# Disc length: 3253 seconds
#
# Revision: 3
# Processed by: cddbd v1.5.1PL0 Copyright (c) Steve Scherf et al.
# Submitted via: CDex 1.51
#
DISCID=d80cb30e
DTITLE=Acda&de Munnik - Naar huis
DYEAR=1998
DGENRE=National Folk
TTITLE0=Het regent zonnestralen
TTITLE1=Niet of nooit geweest
TTITLE2=Naar huis
TTITLE3=Laat me slapen
TTITLE4=Mis ik jou
TTITLE5=Slaap zacht, Elizabeth
TTITLE6=Zwerf,on
TTITLE7=Zitten voor de blues
TTITLE8=De kapitein
TTITLE9=Wennen aan jou
TTITLE10=Brussel moeten heten
TTITLE11=Wees niet bang
TTITLE12=Eerste Helmersstraat
TTITLE13=Bij haar zijn
EXTD=YEAR: 1998
EXTT0=
EXTT1=
EXTT2=
EXTT3=
EXTT4=
EXTT5=
EXTT6=
EXTT7=
EXTT8=
EXTT9=
EXTT10=
EXTT11=
EXTT12=
EXTT13=
PLAYORDER=
